<svg width="48" height="48" viewBox="0 0 48 48" fill="none" xmlns="http://www.w3.org/2000/svg">
<g id="Mobile">
<path id="Vector" d="M32 4H16C14.4087 4 12.8826 4.63214 11.7574 5.75736C10.6321 6.88258 10 8.4087 10 10V38C10 39.5913 10.6321 41.1174 11.7574 42.2426C12.8826 43.3679 14.4087 44 16 44H32C33.5913 44 35.1174 43.3679 36.2426 42.2426C37.3679 41.1174 38 39.5913 38 38V10C38 8.4087 37.3679 6.88258 36.2426 5.75736C35.1174 4.63214 33.5913 4 32 4ZM34 38C34 38.5304 33.7893 39.0391 33.4142 39.4142C33.0391 39.7893 32.5304 40 32 40H16C15.4696 40 14.9609 39.7893 14.5858 39.4142C14.2107 39.0391 14 38.5304 14 38V36H34V38ZM34 32H14V10C14 9.46957 14.2107 8.96086 14.5858 8.58579C14.9609 8.21071 15.4696 8 16 8H32C32.5304 8 33.0391 8.21071 33.4142 8.58579C33.7893 8.96086 34 9.46957 34 10V32Z" fill="#272727"/>
</g>
</svg>
